<?xml version="1.0" standalone="no"?>
<!DOCTYPE svg PUBLIC "-//W3C//DTD SVG 20010904//EN"
 "http://www.w3.org/TR/2001/REC-SVG-20010904/DTD/svg10.dtd">
<svg version="1.0" xmlns="http://www.w3.org/2000/svg"
 width="503.000000pt" height="503.000000pt" viewBox="0 0 503.000000 503.000000"
 preserveAspectRatio="xMidYMid meet">

<g transform="translate(0.000000,503.000000) scale(0.100000,-0.100000)"
fill="#000000" stroke="none">
<path d="M3980 5005 c-31 -38 27 -96 65 -65 18 15 20 51 3 68 -17 17 -53 15
-68 -3z"/>
<path d="M2325 4969 c-486 -37 -984 -237 -1371 -549 -106 -86 -283 -265 -371
-375 -39 -49 -71 -91 -69 -92 1 -1 103 25 226 58 124 33 234 58 245 57 15 -2
20 -11 20 -32 l0 -30 -280 -75 c-154 -41 -283 -79 -287 -85 -38 -54 -140 -241
-176 -321 -48 -108 -104 -256 -99 -261 1 -2 304 78 672 178 477 128 674 177
685 171 25 -17 25 -52 -2 -61 -13 -5 -330 -92 -705 -192 l-682 -184 -25 -105
c-53 -224 -60 -289 -61 -576 0 -217 4 -292 18 -380 24 -144 76 -345 123 -473
73 -203 234 -500 355 -653 l28 -36 317 84 c175 46 325 82 333 81 18 -4 28 -45
14 -59 -4 -4 -121 -38 -258 -74 -138 -36 -274 -73 -303 -81 l-53 -15 82 -90
c203 -223 508 -443 784 -567 l90 -41 420 115 c231 62 429 113 440 111 21 -2
34 -42 18 -57 -4 -5 -168 -52 -363 -105 -195 -53 -364 -99 -375 -102 -25 -8
44 -32 205 -73 646 -161 1327 -58 1895 287 318 194 634 510 828 828 73 120
135 246 190 385 48 120 93 267 86 275 -3 2 -155 -36 -339 -85 -184 -50 -346
-89 -360 -88 -19 2 -26 10 -28 30 -4 32 -42 19 425 144 l332 88 15 86 c17 93
32 215 40 326 l6 71 -95 7 c-186 13 -324 75 -456 206 -146 144 -210 293 -212
490 -1 122 18 213 66 312 l32 65 -80 6 c-44 4 -106 13 -138 22 l-58 15 -570
-151 c-513 -137 -572 -150 -586 -137 -9 10 -13 24 -9 36 5 15 31 26 119 49 62
17 295 79 520 139 224 60 406 112 405 115 -2 4 -31 28 -65 53 -77 56 -160 156
-204 244 -18 37 -34 68 -35 70 0 1 -86 -20 -189 -48 -103 -28 -196 -48 -206
-45 -20 7 -27 49 -10 59 5 3 91 28 191 55 100 27 184 51 186 53 2 2 -1 31 -6
64 -6 32 -10 78 -10 101 l0 42 -76 -35 c-309 -143 -677 -42 -875 239 -90 128
-138 304 -125 455 l7 72 -48 -1 c-26 -1 -97 -6 -158 -10z m-557 -1291 c17 -17
15 -43 -4 -59 -31 -26 -70 25 -44 56 15 18 32 19 48 3z m927 -987 c0 -13 -7
-28 -15 -33 -24 -14 -1661 -449 -1678 -446 -26 5 -39 36 -22 52 20 20 1635
455 1680 453 30 -2 35 -6 35 -26z m1417 -53 c78 -36 142 -98 180 -176 28 -57
32 -75 32 -151 1 -76 -3 -94 -30 -151 -38 -79 -97 -140 -172 -177 -51 -25 -68
-28 -157 -28 -89 0 -106 3 -156 28 -63 30 -136 103 -168 164 -11 22 -25 68
-30 102 -29 182 74 349 252 407 65 21 181 13 249 -18z m-837 -602 c0 -34 69
-12 -583 -186 -422 -113 -464 -123 -478 -108 -10 9 -14 24 -10 35 5 16 88 42
509 155 276 75 516 135 532 135 26 -2 30 -6 30 -31z m760 -366 c8 -27 -12 -52
-39 -48 -21 3 -32 28 -22 54 8 22 54 18 61 -6z m-710 -535 c0 -29 -2 -29 -105
-57 -58 -15 -296 -79 -530 -142 -234 -62 -430 -111 -437 -109 -18 7 -27 43
-14 56 16 16 1020 286 1056 284 26 -2 30 -6 30 -32z m-381 -608 c18 -29 -17
-49 -147 -82 -111 -28 -118 -28 -134 -12 -31 31 -5 49 118 84 126 35 147 37
163 10z"/>
<path d="M3454 4856 c-108 -47 -117 -205 -16 -267 92 -58 217 3 229 113 13
116 -105 201 -213 154z"/>
<path d="M4046 4654 c-59 -59 -20 -154 64 -154 55 0 90 34 90 88 0 53 -38 92
-90 92 -27 0 -45 -7 -64 -26z"/>
</g>
</svg>
